<svg width="28" height="28" viewBox="0 0 28 28" fill="none" xmlns="http://www.w3.org/2000/svg">
<g clip-path="url(#clip0_204_183)">
<path d="M24.7181 21.0406H12.0887L5.85693 25.2625C5.27272 25.6583 4.51067 25.1189 4.6871 24.4345L5.56202 21.0406H3.28154C1.56573 21.0406 0.174805 19.6461 0.174805 17.9259V5.36788C0.174805 3.64769 1.56573 2.25315 3.28154 2.25315H24.7181C26.4339 2.25315 27.8248 3.64764 27.8248 5.36788V17.9259C27.8248 19.6461 26.4339 21.0406 24.7181 21.0406Z" fill="#717171"/>
<path d="M24.7181 2.25315H22.2127C21.778 10.9909 14.556 17.9419 5.71037 17.9419C3.76855 17.9419 1.90552 17.6059 0.174805 16.9905V17.9258C0.174805 19.646 1.56573 21.0406 3.28154 21.0406H5.56202L4.6871 24.4344C4.51067 25.1188 5.27272 25.6582 5.85693 25.2624L12.0887 21.0406H24.7181C26.4339 21.0406 27.8248 19.6461 27.8248 17.9258V5.36788C27.8248 3.64769 26.4339 2.25315 24.7181 2.25315Z" fill="#717171"/>
<path d="M7.12994 14C6.84794 14 6.63194 13.928 6.48194 13.784C6.33794 13.634 6.26594 13.421 6.26594 13.145V8.50999C6.26594 8.23399 6.33794 8.02399 6.48194 7.87999C6.63194 7.72999 6.84794 7.65499 7.12994 7.65499H10.1809C10.3969 7.65499 10.5589 7.70899 10.6669 7.81699C10.7749 7.92499 10.8289 8.08099 10.8289 8.28499C10.8289 8.49499 10.7749 8.65699 10.6669 8.77099C10.5589 8.87899 10.3969 8.93299 10.1809 8.93299H7.84994V10.139H9.98294C10.1929 10.139 10.3519 10.193 10.4599 10.301C10.5739 10.409 10.6309 10.568 10.6309 10.778C10.6309 10.988 10.5739 11.147 10.4599 11.255C10.3519 11.363 10.1929 11.417 9.98294 11.417H7.84994V12.722H10.1809C10.3969 12.722 10.5589 12.779 10.6669 12.893C10.7749 13.001 10.8289 13.157 10.8289 13.361C10.8289 13.571 10.7749 13.73 10.6669 13.838C10.5589 13.946 10.3969 14 10.1809 14H7.12994ZM12.4783 14.081C12.2263 14.081 12.0313 14.012 11.8933 13.874C11.7553 13.736 11.6863 13.535 11.6863 13.271V10.292C11.6863 10.034 11.7523 9.83599 11.8843 9.69799C12.0223 9.55999 12.2173 9.49099 12.4693 9.49099C12.7213 9.49099 12.9133 9.55999 13.0453 9.69799C13.1773 9.83599 13.2433 10.034 13.2433 10.292V10.715L13.1443 10.346C13.2883 10.064 13.4923 9.84799 13.7563 9.69799C14.0263 9.54799 14.3323 9.47299 14.6743 9.47299C15.0283 9.47299 15.3193 9.54199 15.5473 9.67999C15.7753 9.81199 15.9463 10.022 16.0603 10.31C16.1743 10.592 16.2313 10.949 16.2313 11.381V13.271C16.2313 13.535 16.1623 13.736 16.0243 13.874C15.8863 14.012 15.6883 14.081 15.4303 14.081C15.1723 14.081 14.9743 14.012 14.8363 13.874C14.6983 13.736 14.6293 13.535 14.6293 13.271V11.444C14.6293 11.174 14.5813 10.982 14.4853 10.868C14.3953 10.754 14.2603 10.697 14.0803 10.697C13.8403 10.697 13.6483 10.775 13.5043 10.931C13.3603 11.081 13.2883 11.285 13.2883 11.543V13.271C13.2883 13.811 13.0183 14.081 12.4783 14.081ZM19.3403 15.719C19.0103 15.719 18.7013 15.695 18.4133 15.647C18.1253 15.605 17.8763 15.542 17.6663 15.458C17.4923 15.398 17.3693 15.311 17.2973 15.197C17.2253 15.083 17.1923 14.963 17.1983 14.837C17.2043 14.711 17.2373 14.597 17.2973 14.495C17.3633 14.393 17.4503 14.318 17.5583 14.27C17.6663 14.228 17.7863 14.231 17.9183 14.279C18.1823 14.387 18.4223 14.456 18.6383 14.486C18.8543 14.522 19.0373 14.54 19.1873 14.54C19.5533 14.54 19.8263 14.462 20.0063 14.306C20.1923 14.156 20.2853 13.919 20.2853 13.595V13.028H20.3573C20.2673 13.28 20.0843 13.487 19.8083 13.649C19.5323 13.805 19.2323 13.883 18.9083 13.883C18.5123 13.883 18.1673 13.793 17.8733 13.613C17.5793 13.427 17.3483 13.169 17.1803 12.839C17.0183 12.509 16.9373 12.122 16.9373 11.678C16.9373 11.342 16.9853 11.039 17.0813 10.769C17.1773 10.499 17.3093 10.268 17.4773 10.076C17.6513 9.88399 17.8583 9.73699 18.0983 9.63499C18.3443 9.52699 18.6143 9.47299 18.9083 9.47299C19.2443 9.47299 19.5443 9.55099 19.8083 9.70699C20.0783 9.86299 20.2583 10.067 20.3483 10.319L20.2583 10.688V10.292C20.2583 10.034 20.3273 9.83599 20.4653 9.69799C20.6093 9.55999 20.8073 9.49099 21.0593 9.49099C21.3113 9.49099 21.5033 9.55999 21.6353 9.69799C21.7733 9.83599 21.8423 10.034 21.8423 10.292V13.406C21.8423 14.174 21.6263 14.75 21.1943 15.134C20.7623 15.524 20.1443 15.719 19.3403 15.719ZM19.4033 12.704C19.5833 12.704 19.7363 12.665 19.8623 12.587C19.9883 12.503 20.0873 12.386 20.1593 12.236C20.2313 12.08 20.2673 11.894 20.2673 11.678C20.2673 11.354 20.1893 11.102 20.0333 10.922C19.8773 10.742 19.6673 10.652 19.4033 10.652C19.2353 10.652 19.0853 10.694 18.9533 10.778C18.8213 10.856 18.7193 10.973 18.6473 11.129C18.5813 11.279 18.5483 11.462 18.5483 11.678C18.5483 12.002 18.6263 12.254 18.7823 12.434C18.9383 12.614 19.1453 12.704 19.4033 12.704Z" fill="white"/>
</g>
<defs>
<clipPath id="clip0_204_183">
<rect width="27.65" height="27.65" fill="white" transform="translate(0.174805)"/>
</clipPath>
</defs>
</svg>
