<svg width="28" height="28" viewBox="0 0 28 28" fill="none" xmlns="http://www.w3.org/2000/svg">
<path d="M14 0.864063C6.84211 0.864063 1.03906 6.66711 1.03906 13.825C1.03906 20.9829 6.84211 26.7859 14 26.7859C21.1579 26.7859 26.9609 20.9829 26.9609 13.825C26.9609 6.66711 21.1579 0.864063 14 0.864063ZM7.95156 7.22486L9.94711 6.48047H11.4078V12.5289H9.70345V7.73682H9.67969L8.24102 8.28593L7.95156 7.22486ZM10.2011 21.1695C9.40967 21.1695 8.74218 20.9712 8.38359 20.7552L8.67565 19.7291C8.92882 19.8549 9.51422 20.0886 10.0975 20.0886C10.8401 20.0886 11.2173 19.7477 11.2173 19.3062C11.2173 18.7299 10.6146 18.4685 9.98384 18.4685H9.4006V17.4873H9.95662C10.4357 17.4787 11.0466 17.3085 11.0466 16.8129C11.0466 16.4617 10.7464 16.2012 10.1437 16.2012C9.64512 16.2012 9.11761 16.4081 8.86358 16.5524L8.57239 15.5618C8.93962 15.3371 9.67364 15.1211 10.4634 15.1211C11.7712 15.1211 12.497 15.7782 12.497 16.5783C12.497 17.2 12.1297 17.6861 11.3763 17.9384V17.9552C12.1116 18.0822 12.7039 18.6128 12.7039 19.3783C12.7039 20.4126 11.7539 21.1695 10.2011 21.1695ZM15.5121 11.6877L16.3001 10.9917C17.6308 9.83001 18.278 9.16166 18.2957 8.46609C18.2957 7.98091 17.9963 7.59597 17.2934 7.59597C16.7685 7.59597 16.3096 7.8526 15.9895 8.09108L15.5877 7.09352C16.047 6.75438 16.759 6.48004 17.5833 6.48004C18.961 6.48004 19.7205 7.26633 19.7205 8.34641C19.7205 9.34397 18.9796 10.1402 18.0987 10.9092L17.5366 11.3659V11.3845H19.8324V12.5289H15.5121V11.6877ZM20.0484 19.7274H19.257V21.1695H17.7911V19.7274H14.8641V18.8059L17.3651 15.1211H19.257V18.6659H20.0484V19.7274Z" fill="#717171"/>
<path d="M17.192 17.3275L16.3076 18.6482V18.6659H17.7912V17.3275C17.7912 16.9628 17.8115 16.5917 17.8418 16.2003H17.802C17.5886 16.5917 17.4153 16.9456 17.192 17.3275Z" fill="#717171"/>
</svg>
