<svg width="18" height="18" viewBox="0 0 18 18" fill="none" xmlns="http://www.w3.org/2000/svg">
<circle cx="9" cy="9" r="9" fill="#34A853"/>
<path d="M8.99097 14.1246C8.60328 14.1246 8.30328 14.0092 8.09097 13.7785C7.87866 13.5477 7.77251 13.2154 7.77251 12.7815V8.40615C7.77251 7.97231 7.87866 7.64 8.09097 7.40923C8.30328 7.17846 8.60328 7.06308 8.99097 7.06308C9.38789 7.06308 9.69251 7.17846 9.90482 7.40923C10.1264 7.64 10.2371 7.97231 10.2371 8.40615V12.7815C10.2371 13.2154 10.131 13.5477 9.91866 13.7785C9.70636 14.0092 9.39712 14.1246 8.99097 14.1246ZM8.99097 6.08C8.55712 6.08 8.2202 5.97846 7.9802 5.77538C7.74943 5.57231 7.63405 5.27692 7.63405 4.88923C7.63405 4.51077 7.74943 4.22 7.9802 4.01692C8.2202 3.81385 8.55712 3.71231 8.99097 3.71231C9.44328 3.71231 9.78482 3.81385 10.0156 4.01692C10.2464 4.22 10.3617 4.51077 10.3617 4.88923C10.3617 5.27692 10.2464 5.57231 10.0156 5.77538C9.78482 5.97846 9.44328 6.08 8.99097 6.08Z" fill="white"/>
</svg>
